<?xml version="1.0" standalone="no"?>
<!DOCTYPE svg PUBLIC "-//W3C//DTD SVG 1.1//EN" "http://www.w3.org/Graphics/SVG/1.1/DTD/svg11.dtd" >
<svg xmlns="http://www.w3.org/2000/svg" xmlns:xlink="http://www.w3.org/1999/xlink" version="1.1">
<metadata></metadata>
<defs>
<font id="bm_hanna_11yrs_oldregular" horiz-adv-x="851" >
<font-face units-per-em="2048" ascent="1638" descent="-410" />
<missing-glyph horiz-adv-x="675" />
<glyph horiz-adv-x="0" />
<glyph horiz-adv-x="682" />
<glyph horiz-adv-x="675" />
<glyph unicode=" "  horiz-adv-x="675" />
<glyph unicode="&#x09;" horiz-adv-x="675" />
<glyph unicode="&#xa0;" horiz-adv-x="675" />
<glyph horiz-adv-x="675" />
<glyph horiz-adv-x="675" />
<glyph horiz-adv-x="675" />
<glyph horiz-adv-x="675" />
<glyph horiz-adv-x="675" />
<glyph horiz-adv-x="675" />
<glyph horiz-adv-x="675" />
<glyph horiz-adv-x="675" />
<glyph horiz-adv-x="675" />
<glyph horiz-adv-x="675" />
<glyph horiz-adv-x="675" />
<glyph horiz-adv-x="675" />
<glyph horiz-adv-x="675" />
<glyph horiz-adv-x="675" />
<glyph horiz-adv-x="675" />
<glyph horiz-adv-x="675" />
<glyph horiz-adv-x="675" />
<glyph horiz-adv-x="675" />
<glyph unicode="&#xd;" horiz-adv-x="675" />
<glyph horiz-adv-x="675" />
<glyph horiz-adv-x="675" />
<glyph unicode="&#xa;" horiz-adv-x="675" />
<glyph unicode="&#x9;" horiz-adv-x="675" />
<glyph horiz-adv-x="675" />
<glyph horiz-adv-x="675" />
<glyph horiz-adv-x="675" />
<glyph horiz-adv-x="675" />
<glyph horiz-adv-x="675" />
<glyph horiz-adv-x="675" />
<glyph horiz-adv-x="675" />
<glyph unicode="!" horiz-adv-x="735" d="M215 248v1143h305v-1143h-305zM231 63h277v-247h-277v247z" />
<glyph unicode="&#x22;" horiz-adv-x="796" d="M113 1028v348h225l-41 -348h-184zM461 1028v348h225l-41 -348h-184z" />
<glyph unicode="#" horiz-adv-x="1538" d="M82 293v205h227l88 368h-254v205h301l76 318h289l-74 -318h254l72 318h291l-70 -318h174v-205h-219l-80 -368h238v-205h-281l-86 -397h-301l88 397h-258l-90 -397h-299l94 397h-180zM604 498h258l82 368h-256z" />
<glyph unicode="$" horiz-adv-x="1288" d="M102 918q0 170 115 267t303 118v147h299v-156q168 -31 301 -123v-272q-59 49 -137 87t-164 61v-316q90 -27 164 -57.5t126 -78.5t80 -122t25 -188q-2 -86 -34.5 -149.5t-86 -107.5t-124 -72t-150.5 -42v-180h-299v172q-106 12 -206.5 48t-192.5 91v311q86 -53 184 -98 t215 -63v354q-86 27 -143.5 46t-91.5 36q-98 41 -140.5 116.5t-42.5 170.5zM416 918q0 -29 29.5 -53.5t74.5 -45.5v230q-104 -35 -104 -131zM819 197q53 10 83 39t36 86q4 49 -32 82.5t-87 56.5v-264z" />
<glyph unicode="%" horiz-adv-x="1501" d="M72 928v250q0 45 15 86t43 69.5t65.5 46t80.5 17.5h179q104 0 159.5 -65.5t55.5 -176.5v-229q0 -45 -19.5 -82t-49.5 -62.5t-66.5 -40t-73.5 -14.5h-187q-37 0 -72.5 10.5t-64 34t-47 61t-18.5 95.5zM256 946.5q0 -18.5 6 -36t21.5 -31t46.5 -13.5h57q47 0 66.5 30 t19.5 60v193q0 35 -16.5 62.5t-69.5 27.5h-39q-33 0 -51 -10t-27.5 -26.5t-11.5 -35t-2 -37.5v-153v-30.5zM262 -43l762 1370h256l-756 -1370h-262zM831 16v250q0 45 19.5 86t50.5 70t72 46t84 17h178q104 0 149.5 -65.5t45.5 -175.5v-230q0 -45 -15.5 -81.5t-40 -62.5 t-57.5 -40t-70 -14h-192q-37 0 -76 10t-72 33.5t-54.5 61.5t-21.5 95zM1036 66q0 -12 1 -31t9.5 -36t24.5 -30.5t47 -13.5h58q47 0 62 29.5t15 60.5v193q0 35 -16 62.5t-70 27.5h-39q-33 0 -51 -10.5t-27.5 -27t-11.5 -34.5t-2 -37v-153z" />
<glyph unicode="&#x26;" horiz-adv-x="1331" d="M61 156v280q0 59 12.5 96t33 61.5t47 42t55.5 40.5q-27 33 -42 76t-15 102v225q0 70 24.5 127.5t66.5 98.5t99 63.5t125 22.5h147q154 0 231 -85t77 -227v-229q0 -82 -21.5 -131t-73.5 -80q41 -33 63.5 -62.5t45.5 -80.5l43 -97l88 127l244 2l-234 -342l148 -311h-242 l-72 152q-147 -176 -305 -177h-178q-61 0 -125.5 16.5t-119 52.5t-88.5 94.5t-34 142.5zM324 184q0 -49 38.5 -86t112.5 -37h96q55 0 107.5 41t124.5 121l-78 172q-23 45 -43 73t-42 42t-45.5 19.5t-49.5 5.5h-88q-59 0 -96 -33t-37 -80v-238zM410 879q0 -45 26.5 -77 t83.5 -32h55q59 0 86 27.5t27 81.5v206q0 41 -31.5 73t-81.5 32h-55q-47 0 -78.5 -32t-31.5 -73v-206z" />
<glyph unicode="'" horiz-adv-x="389" d="M92 1028v348h225l-41 -348h-184z" />
<glyph unicode="(" horiz-adv-x="757" d="M133 483q0 98 19.5 220t58.5 246t98.5 240t139.5 202h196q-117 -215 -172 -439.5t-55 -464.5q0 -117 13 -221t40 -204.5t67 -197.5t93 -200h-203q-86 88 -143.5 183.5t-91 196.5t-47 211t-13.5 228z" />
<glyph unicode=")" horiz-adv-x="757" d="M113 1391h196q80 -86 139.5 -202t98.5 -240t58.5 -245.5t19.5 -220.5q0 -117 -14.5 -227.5t-48.5 -212.5t-90 -196.5t-142 -182.5h-203q51 102 91 200.5t66.5 198t41 204t14.5 220.5q0 240 -55.5 464.5t-171.5 439.5z" />
<glyph unicode="*" horiz-adv-x="1079" d="M61 551v164h308l-148 221l170 115l148 -234l153 234l166 -115l-143 -221h303v-164h-303l143 -223l-166 -113l-153 231l-148 -231l-170 113l148 223h-308z" />
<glyph unicode="+" horiz-adv-x="870" d="M61 506v221h244v283h244v-283h260v-221h-260v-273h-244v273h-244z" />
<glyph unicode="," horiz-adv-x="438" d="M102 -84v207h234v-170q0 -78 -48 -150.5t-126 -119.5l-60 59q33 33 60.5 73t32.5 101h-93z" />
<glyph unicode="-" d="M92 516v213h668v-213h-668z" />
<glyph unicode="." horiz-adv-x="430" d="M102 -102v225h226v-225h-226z" />
<glyph unicode="/" horiz-adv-x="825" d="M57 -104l435 1493h276l-424 -1493h-287z" />
<glyph unicode="0" horiz-adv-x="1249" d="M123 264v760q0 102 45 173t113.5 114t148.5 62.5t148 19.5h94q82 0 164 -19.5t146.5 -63.5t104 -115t39.5 -173v-739q0 -84 -27.5 -155t-79.5 -122t-128 -79.5t-170 -28.5h-213q-76 0 -145.5 19.5t-123 62.5t-85 112.5t-31.5 171.5zM395 285.5q0 -31.5 13.5 -57t48.5 -41 t102 -15.5h86q33 0 55.5 15.5t37 41t19.5 57t5 66.5v672q0 35 -6 67.5t-19.5 59.5t-35 42t-54.5 15h-90q-35 0 -63.5 -15t-51 -42t-35 -59.5t-12.5 -67.5v-672v-66.5z" />
<glyph unicode="1" horiz-adv-x="743" d="M61 1114v279h560v-1495h-369v1216h-191z" />
<glyph unicode="2" horiz-adv-x="1175" d="M39 -102l637 747q27 33 48 72t36.5 76.5t24 71.5t8.5 59l-2 67q0 33 -19.5 64.5t-49.5 56.5t-64.5 40t-67.5 15h-55q-33 0 -66 -15t-59.5 -40t-43 -56.5t-16.5 -64.5v-39h-239v56q0 86 34.5 159.5t95 128t144.5 85t182 30.5q135 0 235.5 -37t165 -99.5t96.5 -143 t32 -166.5q0 -59 -7.5 -108.5t-22.5 -94.5t-43 -88t-67 -88q-47 -53 -138 -147.5t-247 -250.5h500v-290h-1032z" />
<glyph unicode="3" horiz-adv-x="1142" d="M45 59v328q18 -43 70.5 -86t118 -77t131 -54t112.5 -20q129 0 205 64.5t76 199.5q0 104 -54.5 172.5t-135.5 112.5t-174 70t-171 46h-2l291 393h-412v183h875l-352 -469q100 -16 185 -56.5t146.5 -105t95 -153.5t33.5 -201q0 -117 -39.5 -216.5t-116.5 -171 t-190.5 -110.5t-259.5 -37q-47 0 -105.5 15.5t-118.5 41t-114.5 59t-93.5 72.5z" />
<glyph unicode="4" horiz-adv-x="1312" d="M111 371v1011h290v-749h318v665h229v-665h330v-262h-330v-496h-229v496h-608z" />
<glyph unicode="5" horiz-adv-x="1155" d="M117 2v279q14 -23 41.5 -48.5t63.5 -49t78 -45t85 -36.5q16 -6 43 -11t55.5 -8t54 -3t40.5 2q47 6 79.5 29.5t52 56.5t27.5 69.5t8 71.5q0 39 -6 81t-24.5 81t-54 70.5t-93.5 52.5q-57 20 -116.5 28.5t-117 10.5t-111.5 0t-101 -4v764h866v-293h-661v-221 q70 2 121.5 -1.5t117.5 -11.5q94 -12 186.5 -43.5t164 -92t115.5 -154t44 -230.5q0 -133 -42 -219t-101.5 -136t-125 -73.5t-110.5 -32.5q-16 -4 -50 -8t-75 -5t-85 1t-80 10q-16 2 -49 10.5t-73 22.5t-84 35.5t-83 50.5z" />
<glyph unicode="6" horiz-adv-x="1146" d="M82.5 413.5q21.5 118.5 69.5 217.5l407 762h318l-252 -578q98 -2 178 -31.5t136 -85t87 -133.5t31 -176v-125q0 -72 -25.5 -140.5t-77 -123.5t-127 -90t-176.5 -37h-92h-64.5t-33.5 2q-61 6 -120.5 31.5t-109 65.5t-86 94.5t-53.5 117.5q-31 111 -9.5 229.5zM358 291 q0 -41 16.5 -74t43 -56.5t59.5 -36.5t68 -13h108q41 0 76 13t60.5 36.5t40 55.5t14.5 69v75q0 74 -46 133.5t-143 59.5l-100 2q-88 0 -142.5 -57.5t-54.5 -139.5v-67z" />
<glyph unicode="7" horiz-adv-x="1132" d="M72 1210v179h1040l-674 -1489h-299l584 1310h-651z" />
<glyph unicode="8" horiz-adv-x="1148" d="M82 256v121q0 78 38 148.5t107 111.5q-39 41 -77.5 100.5t-47.5 136.5v187q0 80 31 141.5t83 104.5t119.5 65.5t141.5 22.5h197q76 0 143.5 -22.5t118.5 -65.5t81 -104.5t30 -141.5v-187q-10 -78 -49.5 -137t-77.5 -100q86 -41 116.5 -110.5t30.5 -147.5v-123 q0 -102 -37 -174t-93 -118t-126 -67.5t-137 -21.5h-197q-66 0 -136.5 21.5t-127.5 67.5t-94 118t-37 174zM350 975q0 -23 14.5 -51.5t39 -56t57.5 -46t69 -18.5h91q37 0 69.5 18.5t56 46t37 56t13.5 51.5v90q0 66 -50.5 114t-125.5 48h-91q-37 0 -69.5 -13.5t-57 -37 t-39 -53t-14.5 -62.5v-86zM356 317q0 -66 51.5 -113.5t129.5 -47.5h90q74 0 125 48t51 113v105q0 23 -13.5 49.5t-37 49t-56 37.5t-69.5 15h-90q-39 0 -72 -15t-57.5 -37.5t-38 -49.5t-13.5 -49v-105z" />
<glyph unicode="9" horiz-adv-x="1097" d="M68 850v147q0 82 28.5 155t81.5 126t129 84t170 31h170q127 0 230.5 -65t144.5 -206q39 -137 13.5 -274t-97.5 -248l-461 -704h-309l319 577q-14 0 -37.5 2t-50 5t-49 7.5t-35.5 8.5q-109 35 -178 128t-69 226zM283 895q0 -86 46 -124t111 -42l131 -6q33 -2 67 9 t61.5 31.5t44 49.5t16.5 64v88q0 51 -16.5 88t-43 60.5t-59.5 34.5t-66 11h-124q-33 0 -63 -14.5t-53.5 -38t-37.5 -55t-14 -64.5v-92z" />
<glyph unicode=":" horiz-adv-x="430" d="M102 123v225h226v-225h-226zM102 778v226h226v-226h-226z" />
<glyph unicode=";" horiz-adv-x="438" d="M102 -33q33 33 60.5 73t32.5 101h-93v207h234v-170q0 -78 -48 -150.5t-126 -119.5zM102 778v226h226v-226h-226z" />
<glyph unicode="&#x3c;" horiz-adv-x="937" d="M102 352v336l713 610v-309q-66 -66 -127 -122t-117 -107q-47 -43 -93 -85t-83 -76t-62.5 -56.5t-31.5 -24.5q6 0 31.5 -21.5t62.5 -55t83 -76.5t93 -89q55 -53 117 -113.5t127 -127.5v-299z" />
<glyph unicode="=" horiz-adv-x="1073" d="M94 293v205h873v-205h-873zM94 702v205h873v-205h-873z" />
<glyph unicode="&#x3e;" horiz-adv-x="937" d="M123 35q66 68 127 128t117 113q45 45 91 88.5t84 77t63.5 55t31.5 21.5q-6 2 -31.5 24.5t-63.5 56.5t-84 76t-91 85q-55 51 -117 107.5t-127 121.5v309l713 -610v-336l-713 -616v299z" />
<glyph unicode="?" horiz-adv-x="1071" d="M96 973q0 178 121 299q127 119 309 119q94 0 181.5 -29t150.5 -86q43 -39 73 -95.5t42 -119t7 -126t-32 -118.5l-256 -586h-262l289 639q12 27 16 62t0 69.5t-17 67.5t-36 59q-66 61 -156 62q-49 0 -76.5 -15.5t-56.5 -46.5q-55 -61 -55 -155h-242zM416 68h268v-236h-268 v236z" />
<glyph unicode="@" horiz-adv-x="1509" d="M102 223v725q0 100 45.5 181t118 139.5t162.5 90.5t180 32h332q100 0 186 -32t148.5 -90.5t97.5 -139t35 -181.5v-571q0 -98 -40 -149.5t-95 -73.5q-41 -16 -89 -15.5t-93.5 14t-81 40t-52.5 61.5q-27 -37 -64.5 -56.5t-72.5 -19.5h-157q-31 0 -64 13.5t-59.5 41 t-44 71.5t-17.5 106v270q0 49 16.5 92t47 76t71.5 52.5t90 19.5h95q20 0 53 -8.5t55 -30.5v84h180v-508q0 -45 15.5 -74t35 -36t35 11.5t15.5 65.5v502q0 39 -22.5 73.5t-56.5 61t-76 42t-81 15.5h-340q-39 0 -82 -15.5t-79.5 -42t-60 -61t-23.5 -73.5v-682q0 -41 19 -81 t53 -71t79 -50t94 -19h693v-207h-732q-68 0 -149.5 20.5t-152 68.5t-119 126t-48.5 192zM700 436q0 -43 17.5 -75.5t77.5 -32.5h18q45 0 71.5 35.5t26.5 72.5v232q0 41 -23.5 72.5t-74.5 31.5h-37q-35 0 -55.5 -31.5t-20.5 -72.5v-232z" />
<glyph unicode="A" horiz-adv-x="1419" d="M35 -102l532 1493h289l528 -1493h-272l-92 309h-553l-102 -309h-330zM549 383h383l-187 633h-4z" />
<glyph unicode="B" horiz-adv-x="1320" d="M117 -102v1491h608q143 0 237.5 -32t149.5 -86t76.5 -123t21.5 -142q0 -80 -20.5 -134.5t-50 -90.5t-62.5 -55t-57 -32q137 -53 186 -141q45 -81 45 -193v-18q-8 -225 -167.5 -334.5t-432.5 -109.5h-534zM455 780h280q59 0 111.5 13.5t90.5 40t59.5 68.5t21.5 97 q0 100 -76 150.5t-217 50.5h-270v-420zM463 145h297q70 0 121 19.5t84.5 52.5t50 74t16.5 84q0 57 -20.5 100t-56 70.5t-82 42t-97.5 14.5h-313v-457z" />
<glyph unicode="C" horiz-adv-x="1331" d="M96 317v607q0 96 34 181t97.5 147.5t153.5 99.5t205 37h225q84 0 154.5 -26t126 -70t95.5 -105.5t64 -132.5l-280 -88q-27 57 -77 93t-110 36h-155q-53 0 -92 -19.5t-65 -50.5t-38 -71t-12 -78v-490q0 -51 7 -93t27.5 -73t56.5 -48t93 -17h174q94 0 139.5 58t51.5 140 h295q0 -106 -35 -190t-96.5 -143.5t-145.5 -91t-182 -31.5h-277q-68 0 -143.5 20.5t-140 68.5t-107.5 129t-43 201z" />
<glyph unicode="D" horiz-adv-x="1353" d="M117 -102v1491h618q86 0 178.5 -20.5t169 -75t125.5 -148.5q47 -90 47 -230v-12l-2 -493q0 -135 -51 -232.5t-132 -159t-179 -91t-191 -29.5h-583zM446 221h261q55 0 107 11.5t92 38t64.5 71.5t24.5 115v370q0 139 -68.5 204t-238.5 65h-242v-875z" />
<glyph unicode="E" horiz-adv-x="1228" d="M127 -100v1489h1016v-236h-678v-365h559v-202h-559v-463h678v-223h-1016z" />
<glyph unicode="F" horiz-adv-x="1161" d="M117 -102v1491h999v-203h-653v-410h575v-198h-575v-680h-346z" />
<glyph unicode="G" horiz-adv-x="1339" d="M96 352v568q0 98 35 184t101.5 148.5t160.5 99.5t215 37h146q100 0 179 -25t137 -70t99 -105.5t66 -133.5l-291 -88q-12 27 -26.5 51t-36 41.5t-51 28t-74.5 10.5h-125q-111 0 -167 -59.5t-56 -141.5v-514q0 -117 53 -175t151 -58h140q72 0 113.5 20t63 57t28 87.5 t6.5 109.5l-2 92h-242v174h534v-332q0 -223 -94 -335.5t-287 -128.5q-62 -7 -125 -7q-12 0 -23 1q-75 1 -169 6q-84 2 -166 29.5t-146.5 82.5t-105.5 141t-41 205z" />
<glyph unicode="H" horiz-adv-x="1396" d="M117 -102v1493h360v-594h524v594h279v-1493h-279v671h-524v-671h-360z" />
<glyph unicode="I" horiz-adv-x="532" d="M117 -102v1491h299v-1491h-299z" />
<glyph unicode="J" horiz-adv-x="1126" d="M55 455h291q0 -88 5 -153.5t23.5 -110t54.5 -66t97 -21.5t96 18.5t52.5 48.5t21.5 70t4 83v1065h320v-1065q0 -240 -120 -354.5t-347 -114.5q-186 0 -286.5 53t-147.5 139t-55.5 192.5t-8.5 215.5z" />
<glyph unicode="K" horiz-adv-x="1249" d="M117 -100v1489h303v-414l727 409v-335l-563 -334l590 -463v-352l-754 551v-551h-303z" />
<glyph unicode="L" horiz-adv-x="1193" d="M117 -104v1493h332v-1274h679v-219h-1011z" />
<glyph unicode="M" horiz-adv-x="1525" d="M117 -102v1493h344l323 -363l320 361h305v-1491h-305v1101l-324 -284l-319 282v-1099h-344z" />
<glyph unicode="N" horiz-adv-x="1437" d="M117 -102v1493h362l543 -1035v1035h299v-1493h-315l-527 933v-933h-362z" />
<glyph unicode="O" horiz-adv-x="1353" d="M96 305v641q0 100 39 182t105.5 140.5t154.5 90.5t187 32h209q100 0 186 -32t148.5 -90.5t97 -139t34.5 -181.5v-649q0 -90 -37.5 -165t-98 -127t-133.5 -80.5t-140 -28.5h-303q-68 0 -147 20.5t-146.5 68.5t-111.5 125.5t-44 192.5zM399 346q0 -43 11.5 -80t36 -64.5 t64.5 -43t97 -15.5h129q98 0 157.5 52.5t59.5 150.5v580q0 78 -52 135t-163 57h-114q-111 0 -168.5 -58.5t-57.5 -135.5v-578z" />
<glyph unicode="P" horiz-adv-x="1314" d="M117 -102v1495h614q74 0 165 -15.5t172 -68t136.5 -153.5t55.5 -275q0 -121 -39 -203t-109 -133t-167 -73.5t-212 -25.5h-291v-548h-325zM442 639h260q123 0 188.5 57.5t65.5 180.5t-55 182t-180 61h-279v-481z" />
<glyph unicode="Q" horiz-adv-x="1464" d="M96 340v618q0 98 32 183.5t96.5 148t161.5 99t226 36.5h215q94 0 182.5 -30.5t157 -90t109.5 -146.5t41 -200v-616q0 -45 -8.5 -79t-21.5 -60.5t-28.5 -47t-27.5 -36.5q53 -63 103 -121.5t100 -99.5h-310l-22 20l-58 59q-45 -41 -117.5 -60t-131.5 -19h-242 q-70 0 -149.5 23.5t-148.5 76.5t-114 137t-45 205zM406 393q0 -43 8 -86t30.5 -76.5t63.5 -54t106 -20.5h121q82 0 152 20q-55 49 -90 101.5t-54.5 102.5t-26.5 95t-7 80h258q0 -66 26.5 -132.5t73.5 -109.5q4 12 10 29.5t6 30.5v524q0 111 -70.5 177.5t-199.5 66.5h-178 q-111 0 -170 -61.5t-59 -141.5v-545z" />
<glyph unicode="R" horiz-adv-x="1357" d="M117 -102v1491h710q147 0 237.5 -48.5t139.5 -115t64.5 -138t15.5 -120.5q0 -123 -54 -219.5t-165 -133.5q45 -20 84 -42.5t66.5 -62.5t43 -104.5t15.5 -168.5v-338h-350q14 27 22 53t12.5 58t5.5 73t1 98q0 76 -9.5 132.5t-37 94t-79 56t-137.5 18.5h-231v-583h-354z M471 733h274q123 0 181.5 46t58.5 157q0 29 -8 62.5t-31.5 63.5t-66.5 49t-111 19h-297v-397z" />
<glyph unicode="S" horiz-adv-x="1282" d="M86 53v330q111 -72 245 -125t294 -53q55 0 107 7t94 22.5t70 42t34 67.5q1 8 1 16q-1 39 -25 69q-30 36 -72.5 60.5t-90 40t-77.5 21.5q-160 41 -259.5 72.5t-127.5 48.5q-190 106 -191 303q0 104 50 182t130 130t178.5 78t194.5 26q135 0 261 -36t237 -112v-287 q-43 37 -95.5 71t-109.5 59q-56 24 -118 38q-40 9 -81 8q-21 0 -41 -2q-100 -10 -159.5 -43.5t-59.5 -111.5q0 -37 35 -69t83 -55.5t96 -39.5t77 -25q104 -31 192.5 -61.5t152 -78.5t97.5 -122q30 -67 29 -168v-24q-4 -117 -62.5 -199t-146.5 -134t-192.5 -76.5 t-198.5 -24.5q-137 0 -284.5 41t-266.5 114z" />
<glyph unicode="T" horiz-adv-x="1363" d="M35 1075v316h1294v-316h-475v-1177h-317v1177h-502z" />
<glyph unicode="U" horiz-adv-x="1439" d="M113 381v999h331v-981q0 -29 7.5 -59.5t27 -58t52 -45t85.5 -17.5h205q51 0 86 17.5t56.5 45t31 61.5t9.5 69v968h329v-1040q0 -117 -38 -201t-101.5 -137t-147 -78.5t-178.5 -25.5h-272q-111 0 -203 35.5t-156.5 100t-97.5 152.5q-27 73 -27 158q0 18 1 37z" />
<glyph unicode="V" horiz-adv-x="1497" d="M35 1391h366l131 -525q25 -98 48.5 -194.5t43 -173t31 -126.5t11.5 -57l204 551q41 117 90.5 247t102.5 278h399l-622 -1493h-344z" />
<glyph unicode="W" horiz-adv-x="1978" d="M35 1391h371l315 -996l221 652h94l295 -725l316 1069h297l-492 -1493h-250l-213 530l-213 -530h-250z" />
<glyph unicode="X" horiz-adv-x="1402" d="M35 -102l438 778l-412 713h439l243 -445l232 445h330l-381 -682l444 -809h-444l-275 508l-264 -508h-350z" />
<glyph unicode="Y" horiz-adv-x="1382" d="M35 1389h364l308 -693l290 693h351l-461 -963v-528h-398v551z" />
<glyph unicode="Z" horiz-adv-x="1218" d="M76 -102v309l678 973h-678v211h1065v-193l-731 -989h733v-311h-1067z" />
<glyph unicode="[" horiz-adv-x="690" d="M133 -205v1678h496v-185h-258v-1308h258v-185h-496z" />
<glyph unicode="\" horiz-adv-x="894" d="M72 -104l475 1493h276l-465 -1493h-286z" />
<glyph unicode="]" horiz-adv-x="690" d="M61 -20h258v1308h-258v185h496v-1678h-496v185z" />
<glyph unicode="^" horiz-adv-x="1032" d="M29 924l319 479h279l319 -479h-250l-155 239q-20 27 -21 33l-176 -272h-315z" />
<glyph unicode="_" horiz-adv-x="1077" d="M102 4h873v-184h-873v184z" />
<glyph unicode="`" horiz-adv-x="442" d="M72 1376h237l62 -409h-197z" />
<glyph unicode="a" horiz-adv-x="1083" d="M86 180v371q0 59 20.5 111.5t58.5 92.5t92 62.5t124 22.5h111q14 0 38.5 -3t51 -12.5t52 -25t46.5 -39.5v114h254v-591q0 -88 33.5 -197t99.5 -213h-242l-55 119q-37 -45 -85 -68.5t-97 -23.5h-244q-43 0 -89 16t-83 50t-61.5 87t-24.5 127zM313 207q0 -16 3 -40 t15.5 -44.5t36 -34.5t64.5 -14h68q61 0 100 29.5t39 103.5v287q0 47 -14.5 79.5t-37 52t-49 29t-51.5 9.5h-55q-49 0 -84 -40t-35 -89v-328z" />
<glyph unicode="b" horiz-adv-x="1034" d="M106 -102v1491h269v-574q29 27 68.5 43t99.5 16h139q51 0 99 -18t85 -52t59.5 -80t22.5 -103v-443q0 -59 -26.5 -109.5t-69.5 -89t-96.5 -60t-108.5 -21.5h-108q-51 0 -90 15t-74 42v-57h-269zM389 264q0 -25 13.5 -47t34 -38.5t47 -27t51.5 -10.5h94q78 0 112.5 38 t34.5 102v286q0 74 -42 113t-105 39h-90q-78 0 -114 -42t-36 -91v-322z" />
<glyph unicode="c" horiz-adv-x="960" d="M86 176v406q0 63 33 111t82 80t109.5 47.5t115.5 15.5h125q57 0 109.5 -26t94.5 -67t69.5 -91t35.5 -99l-215 -29q-10 43 -50 71t-85 28h-72q-25 0 -50.5 -9.5t-45.5 -26t-33.5 -37t-13.5 -44.5v-295q0 -16 10 -37.5t29.5 -41t46.5 -33t57 -13.5h86q63 0 102.5 30.5 t39.5 73.5v35h208v-49q0 -61 -25.5 -112.5t-64.5 -88t-87 -57t-93 -20.5h-213q-47 0 -100 14t-98.5 46t-76 85t-30.5 133z" />
<glyph unicode="d" horiz-adv-x="1054" d="M86 178v443q0 57 22.5 103t59.5 80t85 52t99 18h160q57 0 91 -8t77 -30v553h268v-1491h-268v71q-35 -33 -79 -52t-93 -19h-100q-78 0 -137.5 21.5t-100.5 60t-62.5 89t-21.5 109.5zM297 276q0 -63 24.5 -109t102.5 -46h98h-2q25 0 51.5 9t47 26.5t34 43t13.5 58.5v307 q0 49 -36 91t-114 42h-72q-63 0 -105 -38.5t-42 -112.5v-271z" />
<glyph unicode="e" horiz-adv-x="1046" d="M86 188v363q0 68 30.5 126t82 102t120 68.5t144.5 24.5h117q72 0 137 -22.5t115.5 -63.5t80 -101t29.5 -134v-232h-608v-94q0 -18 7 -44.5t25.5 -50.5t51.5 -40t84 -16h80q147 0 147 135h232v-62q0 -74 -29 -122t-76 -76.5t-108.5 -39.5t-126.5 -11h-197q-51 0 -105.5 14 t-102.5 48t-83 89t-47 139zM334 473h375v62q0 27 -13.5 52t-36 44.5t-51 31t-57.5 11.5h-66q-29 0 -56.5 -11.5t-49 -31t-33.5 -45t-12 -51.5v-62z" />
<glyph unicode="f" horiz-adv-x="681" d="M31 627v176h153v284q0 61 18.5 102.5t50.5 66t75 34.5t92 10h203v-190h-101q-72 0 -71 -86v-221h196v-176h-196v-729h-267v729h-153z" />
<glyph unicode="g" horiz-adv-x="1009" d="M86 174v344q0 59 23.5 111.5t63.5 90.5t93 60.5t115 22.5h127q70 0 141 -37v108h254v-1069q0 -80 -31.5 -133t-77.5 -87t-100.5 -48t-97.5 -14h-211q-43 0 -90 16.5t-85 51t-63.5 88t-25.5 124.5h235q2 -20 7.5 -40.5t15.5 -37t28.5 -26.5t47.5 -10h88q47 0 76.5 29.5 t29.5 64.5v178q-18 -20 -59 -31.5t-68 -11.5h-155q-59 0 -109.5 18.5t-89.5 52.5t-60.5 81t-21.5 104zM315 199q0 -43 27 -84t88 -41h84q47 0 84 28.5t37 106.5v293q0 66 -46 95.5t-95 29.5h-43q-61 0 -98.5 -36t-37.5 -102v-290z" />
<glyph unicode="h" horiz-adv-x="1095" d="M106 -102v1493h277v-564q31 16 75 29.5t89 13.5h110q61 0 122 -20.5t110 -64.5t79.5 -114.5t30.5 -170.5v-602h-227v565q0 55 -13.5 90t-36 55.5t-50 28.5t-54.5 8h-96q-18 0 -42.5 -5t-46 -15.5t-36 -26.5t-14.5 -37v-663h-277z" />
<glyph unicode="i" horiz-adv-x="460" d="M106 -102v972h248v-972h-248zM106 1057v241h248v-241h-248z" />
<glyph unicode="j" horiz-adv-x="471" d="M-66 -299q92 16 145.5 63.5t53.5 133.5v972h232v-991q0 -86 -36 -160.5t-95.5 -130t-137.5 -87t-162 -31.5v231zM127 1059v239h238v-239h-238z" />
<glyph unicode="k" horiz-adv-x="1026" d="M117 -102v1491h260v-818l553 308v-277l-367 -215l367 -217v-279l-553 318v-311h-260z" />
<glyph unicode="l" horiz-adv-x="481" d="M106 -102v1493h269v-1493h-269z" />
<glyph unicode="m" horiz-adv-x="1449" d="M106 -102v995h297v-107q10 16 49.5 32t73.5 16h103q55 0 104 -25t82 -66q29 41 82 66t96 25h92q57 0 106.5 -26t85.5 -72t56.5 -110.5t20.5 -140.5v-587h-199v548q0 63 -22.5 111.5t-83.5 50.5h-5q-110 0 -110 -166v-544h-225v548q0 63 -34 112.5t-104 49.5 q-55 0 -87.5 -18.5t-51 -48t-24 -66.5t-5.5 -74v-503h-297z" />
<glyph unicode="n" horiz-adv-x="1130" d="M106 -102v997h302v-82q29 16 67.5 27.5t73.5 11.5h149q70 0 131.5 -24.5t106.5 -69.5t71.5 -111.5t26.5 -148.5v-600h-209v546q0 31 -11 62t-31.5 53.5t-46 36.5t-52.5 14h-139q-23 0 -46.5 -10t-44 -28.5t-33.5 -43t-13 -51.5v-579h-302z" />
<glyph unicode="o" horiz-adv-x="1054" d="M86 207v364q0 63 29.5 118.5t80 96.5t118 63.5t143.5 22.5h127q86 0 156.5 -24.5t121.5 -65.5t79 -98t28 -121v-377q0 -63 -22.5 -116.5t-65.5 -91t-102.5 -59t-133.5 -21.5h-229q-66 0 -126.5 18t-105.5 56t-71.5 96.5t-26.5 138.5zM342 229q0 -16 5 -41.5t20.5 -48 t43 -39t70.5 -16.5h92q35 0 60.5 13.5t43 33t26 43t8.5 45.5v291q0 49 -40 95t-112 46h-57q-29 0 -56.5 -8t-51 -25.5t-38 -44t-14.5 -65.5v-279z" />
<glyph unicode="p" horiz-adv-x="1077" d="M106 -530v1433h269v-72q35 27 85 42.5t101 15.5h123q61 0 116.5 -23.5t98.5 -63.5t67.5 -93.5t24.5 -110.5v-434q0 -59 -26.5 -104.5t-68.5 -77t-94 -48t-104 -16.5h-190q-43 0 -77 12.5t-56 30.5v-491h-269zM389 244q0 -66 34 -105t93 -39h115q61 0 110.5 33t49.5 123 v217q0 92 -41 132t-107 40h-113q-25 0 -50 -10t-44.5 -28.5t-33 -41t-13.5 -47.5v-274z" />
<glyph unicode="q" horiz-adv-x="1077" d="M86 164v434q0 57 24.5 110.5t67.5 93.5t98.5 63.5t116.5 23.5h123q51 0 101.5 -15.5t84.5 -42.5v72h269v-1433h-269v491q-23 -18 -56.5 -30.5t-76.5 -12.5h-190q-51 0 -103.5 16.5t-94.5 48t-68.5 76.5t-26.5 105zM287 256q0 -90 49 -123t110 -33h115q59 0 93 39t34 105 v274q0 25 -13 47.5t-32.5 41t-45.5 28.5t-50 10h-113q-66 0 -106.5 -40t-40.5 -132v-217z" />
<glyph unicode="r" horiz-adv-x="909" d="M106 -102v974h281v-137q31 23 76 46.5t105.5 44t137 34.5t168.5 17v-261q-43 0 -100 -3t-122.5 -17t-133 -41t-131.5 -74v-583h-281z" />
<glyph unicode="s" horiz-adv-x="974" d="M94 -12v190q98 -41 198 -78q80 -30 155 -30q18 0 36 2q29 0 55.5 2t49 11t38 26.5t21.5 46.5q3 12 3 23q0 21 -10 39q-15 28 -42 47.5t-59.5 32.5t-57.5 19q-82 20 -152.5 40t-121.5 50.5t-81 78t-30 120.5q0 98 54.5 162t136.5 97.5t175 38.5q20 1 40 1q71 0 133 -14 q59 -14 114.5 -34.5t102.5 -55.5v-207q-35 29 -67.5 50.5t-79.5 41.5q-31 14 -68 23.5t-74 10.5h-8q-33 0 -65 -7q-36 -8 -64 -31q-23 -18 -28 -39.5t1.5 -43t22.5 -38t39 -22.5q84 -27 148.5 -48.5t135.5 -50.5q57 -25 92 -55.5t53.5 -66t25 -74.5t6.5 -78 q0 -80 -40 -137.5t-102.5 -94t-139.5 -53t-151 -16.5q-111 0 -206 30.5t-189 90.5z" />
<glyph unicode="t" horiz-adv-x="819" d="M41 688v203h217v438h301v-438h219v-203h-219v-790h-301v790h-217z" />
<glyph unicode="u" horiz-adv-x="1126" d="M96 266v606h250v-544q0 -104 27.5 -151.5t103.5 -47.5h82q63 0 101 45t38 137v561h322v-974h-293v86q-51 -53 -106.5 -69.5t-100.5 -16.5h-84q-68 0 -130 17t-108 59t-74 113t-28 179z" />
<glyph unicode="v" horiz-adv-x="1286" d="M25 870h337q90 -209 138.5 -321.5t70 -164.5t25.5 -60l4 -9l238 555h424l-431 -972h-374z" />
<glyph unicode="w" horiz-adv-x="1558" d="M25 870h290q51 -135 100.5 -263t102.5 -263q2 8 12.5 35t24.5 64.5t32.5 83.5t37.5 94l-95 249h218q51 -135 100 -263t102 -263l205 526h379l-371 -972h-262l-129 338l-129 -338h-248z" />
<glyph unicode="x" horiz-adv-x="1216" d="M25 -102l337 489l-337 485h331l201 -294l227 294h408l-385 -493l371 -481h-396l-233 303l-205 -303h-319z" />
<glyph unicode="y" horiz-adv-x="1173" d="M25 872h266l239 -653l238 653h381l-559 -1554h-375l195 541z" />
<glyph unicode="z" horiz-adv-x="1146" d="M76 -102l506 796h-488v178h971l-512 -704h518v-270h-995z" />
<glyph unicode="{" horiz-adv-x="743" d="M42 635.5q-1 21.5 5 41t19 32.5l172 143v430q0 27 10 53.5t30.5 48t51 35t71.5 13.5h271v-144h-111q-41 0 -53 -16.5t-12 -57.5v-419l-181 -107q-23 -20 -24.5 -56t16.5 -59l189 -153v-430q0 -39 12 -54.5t51 -15.5h113v-123h-258q-37 0 -69 13.5t-56.5 34t-37.5 47 t-13 55.5v440l-170 172q-12 14 -18.5 34.5t-7.5 42z" />
<glyph unicode="|" horiz-adv-x="620" d="M164 -184v1573h295v-1573h-295z" />
<glyph unicode="}" horiz-adv-x="743" d="M72 -80h112q39 0 51.5 15.5t12.5 54.5v430l188 153q18 23 16.5 59t-24.5 56l-180 107v419q0 41 -12.5 57.5t-53.5 16.5h-110v144h270q41 0 71.5 -13.5t51 -35t31 -48t10.5 -53.5v-430l172 -143q12 -12 18 -32t5 -41.5t-7 -42t-18 -34.5l-170 -172v-440q0 -29 -13.5 -55.5 t-38 -47t-56 -34t-68.5 -13.5h-258v123z" />
<glyph unicode="~" horiz-adv-x="1220" d="M84 641q59 117 146 180.5t186 67.5q76 4 130 -28t102 -69.5t99.5 -69.5t124.5 -30q39 2 67 19.5t45 42t26.5 50t13.5 44.5l129 -139q-18 -53 -44 -99.5t-58.5 -81t-72.5 -55t-85 -20.5q-84 0 -145.5 31.5t-113.5 69.5t-100.5 70.5t-105.5 34.5q-61 0 -131 -33.5 t-113 -117.5z" />
<glyph unicode="&#xa1;" horiz-adv-x="618" />
<glyph unicode="&#xa4;" horiz-adv-x="1716" />
<glyph unicode="&#xa7;" horiz-adv-x="708" />
<glyph unicode="&#xa8;" horiz-adv-x="1105" />
<glyph unicode="&#xa9;" horiz-adv-x="1751" />
<glyph unicode="&#xaa;" horiz-adv-x="1107" />
<glyph unicode="&#xad;" d="M92 516v213h668v-213h-668z" />
<glyph unicode="&#xb0;" horiz-adv-x="913" />
<glyph unicode="&#xb1;" horiz-adv-x="1064" />
<glyph unicode="&#xb2;" horiz-adv-x="962" />
<glyph unicode="&#xb3;" horiz-adv-x="962" />
<glyph unicode="&#xb4;" horiz-adv-x="663" />
<glyph unicode="&#xb6;" horiz-adv-x="1239" />
<glyph unicode="&#xb8;" horiz-adv-x="649" />
<glyph unicode="&#xb9;" horiz-adv-x="962" />
<glyph unicode="&#xba;" horiz-adv-x="1107" />
<glyph unicode="&#xbc;" horiz-adv-x="1509" />
<glyph unicode="&#xbd;" horiz-adv-x="1443" />
<glyph unicode="&#xbe;" horiz-adv-x="1527" />
<glyph unicode="&#xbf;" horiz-adv-x="1105" />
<glyph unicode="&#xc6;" horiz-adv-x="1662" />
<glyph unicode="&#xd0;" horiz-adv-x="1626" />
<glyph unicode="&#xd7;" horiz-adv-x="935" />
<glyph unicode="&#xd8;" horiz-adv-x="1597" />
<glyph unicode="&#xde;" horiz-adv-x="1085" />
<glyph unicode="&#xdf;" horiz-adv-x="1398" />
<glyph unicode="&#xe6;" horiz-adv-x="1777" />
<glyph unicode="&#xf0;" horiz-adv-x="1212" />
<glyph unicode="&#xf7;" horiz-adv-x="1138" />
<glyph unicode="&#xf8;" horiz-adv-x="1253" />
<glyph unicode="&#xfe;" horiz-adv-x="1226" />
<glyph unicode="&#x152;" horiz-adv-x="1773" />
<glyph unicode="&#x153;" horiz-adv-x="1806" />
<glyph unicode="&#x2dc;" horiz-adv-x="1343" />
<glyph unicode="&#x2000;" horiz-adv-x="736" />
<glyph unicode="&#x2001;" horiz-adv-x="1473" />
<glyph unicode="&#x2002;" horiz-adv-x="736" />
<glyph unicode="&#x2003;" horiz-adv-x="1473" />
<glyph unicode="&#x2004;" horiz-adv-x="491" />
<glyph unicode="&#x2005;" horiz-adv-x="368" />
<glyph unicode="&#x2006;" horiz-adv-x="245" />
<glyph unicode="&#x2007;" horiz-adv-x="245" />
<glyph unicode="&#x2008;" horiz-adv-x="184" />
<glyph unicode="&#x2009;" horiz-adv-x="294" />
<glyph unicode="&#x200a;" horiz-adv-x="81" />
<glyph unicode="&#x2010;" d="M92 516v213h668v-213h-668z" />
<glyph unicode="&#x2011;" d="M92 516v213h668v-213h-668z" />
<glyph unicode="&#x2012;" d="M92 516v213h668v-213h-668z" />
<glyph unicode="&#x2013;" horiz-adv-x="839" />
<glyph unicode="&#x2014;" horiz-adv-x="2231" d="M92 516v213h2048v-213h-2048z" />
<glyph unicode="&#x2018;" horiz-adv-x="600" d="M254 930v170q0 78 48 150.5t126 119.5l76 -59q-33 -33 -58.5 -73t-29.5 -101h92v-207h-254z" />
<glyph unicode="&#x2019;" horiz-adv-x="581" d="M143 1163v207h254v-170q0 -78 -48 -150.5t-126 -119.5l-76 59q33 33 58.5 73t30.5 101h-93z" />
<glyph unicode="&#x201c;" horiz-adv-x="825" d="M113 930v170q0 78 48 150.5t126 119.5l75 -59q-33 -33 -58 -73t-30 -101h93v-207h-254zM479 930v170q0 78 48 150.5t126 119.5l76 -59q-33 -33 -58.5 -73t-29.5 -101h92v-207h-254z" />
<glyph unicode="&#x201d;" horiz-adv-x="825" d="M92 1163v207h254v-170q0 -78 -48 -150.5t-126 -119.5l-76 59q33 33 58.5 73t29.5 101h-92zM459 1163v207h254v-170q0 -78 -48.5 -150.5t-125.5 -119.5l-76 59q33 33 58.5 73t29.5 101h-92z" />
<glyph unicode="&#x2022;" horiz-adv-x="1925" />
<glyph unicode="&#x202f;" horiz-adv-x="294" />
<glyph unicode="&#x2039;" horiz-adv-x="1925" />
<glyph unicode="&#x203a;" horiz-adv-x="1925" />
<glyph unicode="&#x205f;" horiz-adv-x="368" />
<glyph unicode="&#x2122;" horiz-adv-x="1613" />
<glyph unicode="&#x25fc;" horiz-adv-x="870" d="M0 0v870h870v-870h-870z" />
</font>
</defs>
</svg>
